<svg viewBox="0 0 200 200" fill="none" xmlns="http://www.w3.org/2000/svg">
  <!-- Outer gold ring -->
  <circle cx="100" cy="100" r="98" fill="#C9941E" stroke="#D4A944" stroke-width="4"/>
  
  <!-- Black ring -->
  <circle cx="100" cy="100" r="90" fill="#0D1B0F" stroke="#0D1B0F" stroke-width="2"/>
  
  <!-- Burgundy/maroon background -->
  <circle cx="100" cy="100" r="85" fill="#6B2329"/>
  
  <!-- T-Rex head profile (facing right) -->
  <g transform="translate(100, 100)">
    <!-- Back head spikes/scales -->
    <g fill="#6B2329" stroke="#0D1B0F" stroke-width="2">
      <path d="M -35 -15 L -40 -25 L -35 -28 Z"/>
      <path d="M -30 -20 L -32 -32 L -28 -34 Z"/>
      <path d="M -24 -24 L -24 -36 L -20 -36 Z"/>
      <path d="M -18 -26 L -16 -38 L -12 -36 Z"/>
      <path d="M -12 -28 L -8 -38 L -4 -36 Z"/>
      <path d="M -6 -28 L 0 -36 L 4 -34 Z"/>
      <path d="M 0 -26 L 6 -32 L 10 -28 Z"/>
    </g>
    
    <!-- Main head/skull shape - gold/orange -->
    <path d="M -35 -12 Q -38 0 -35 15 L -20 18 L -10 12 L 0 8 Q 20 0 45 -8 Q 50 -12 48 -18 Q 45 -22 40 -20 L 0 -8 Q -10 -6 -20 -8 Q -30 -12 -35 -12 Z" 
          fill="url(#goldGradient)" stroke="#0D1B0F" stroke-width="2.5"/>
    
    <!-- Upper jaw detail -->
    <path d="M 0 -8 Q 20 -2 45 -8" fill="none" stroke="#0D1B0F" stroke-width="1.5"/>
    
    <!-- Snout tip -->
    <path d="M 45 -8 L 52 -4 L 50 2 L 45 0 Z" fill="#D4A944" stroke="#0D1B0F" stroke-width="2"/>
    
    <!-- Nostril -->
    <ellipse cx="46" cy="-3" rx="2" ry="3" fill="#0D1B0F"/>
    
    <!-- Eye socket - large and intimidating -->
    <circle cx="15" cy="-5" r="10" fill="#0D1B0F" stroke="#D4A944" stroke-width="2"/>
    
    <!-- Eye iris/pupil - orange glow -->
    <circle cx="16" cy="-5" r="6" fill="#C9941E"/>
    <circle cx="17" cy="-6" r="3" fill="#E8B54D"/>
    
    <!-- Lower jaw - gold -->
    <path d="M -20 18 L -10 22 L 10 20 Q 30 16 48 8 L 50 2 L 48 8 Q 30 18 10 22 Q -10 24 -20 20 Z" 
          fill="url(#goldGradient2)" stroke="#0D1B0F" stroke-width="2.5"/>
    
    <!-- Jaw line detail -->
    <path d="M -10 12 Q 0 14 10 13" fill="none" stroke="#0D1B0F" stroke-width="1.5"/>
    
    <!-- Upper teeth (white/cream) -->
    <g fill="#F5F3E8" stroke="#0D1B0F" stroke-width="0.8">
      <path d="M 8 8 L 10 16 L 12 8"/>
      <path d="M 14 8 L 16 18 L 18 8"/>
      <path d="M 20 6 L 22 16 L 24 6"/>
      <path d="M 26 4 L 28 14 L 30 4"/>
      <path d="M 32 2 L 34 12 L 36 2"/>
      <path d="M 38 0 L 40 10 L 42 0"/>
      <path d="M 44 -2 L 46 6 L 48 -2"/>
    </g>
    
    <!-- Lower teeth -->
    <g fill="#F5F3E8" stroke="#0D1B0F" stroke-width="0.8">
      <path d="M 6 20 L 8 12 L 10 20"/>
      <path d="M 12 21 L 14 11 L 16 21"/>
      <path d="M 18 20 L 20 12 L 22 20"/>
      <path d="M 24 19 L 26 11 L 28 19"/>
      <path d="M 30 18 L 32 10 L 34 18"/>
      <path d="M 36 16 L 38 8 L 40 16"/>
      <path d="M 42 12 L 44 6 L 46 12"/>
    </g>
    
    <!-- Neck scales/texture -->
    <g fill="#6B2329" stroke="#0D1B0F" stroke-width="1.5" opacity="0.7">
      <path d="M -20 18 L -24 28 L -20 32 L -16 28 Z"/>
      <path d="M -16 24 L -20 34 L -16 38 L -12 34 Z"/>
    </g>
    
    <!-- Jaw joint/muscle detail -->
    <circle cx="-12" cy="10" r="5" fill="#D4A944" stroke="#0D1B0F" stroke-width="1.5"/>
    
    <!-- Head contour lines -->
    <path d="M -25 -2 Q -20 -4 -15 -3" fill="none" stroke="#0D1B0F" stroke-width="1" opacity="0.6"/>
    <path d="M -22 5 Q -15 3 -8 4" fill="none" stroke="#0D1B0F" stroke-width="1" opacity="0.6"/>
  </g>
  
  <!-- Definitions for gradients -->
  <defs>
    <linearGradient id="goldGradient" x1="0%" y1="0%" x2="100%" y2="100%">
      <stop offset="0%" stop-color="#E8B54D"/>
      <stop offset="50%" stop-color="#D4A944"/>
      <stop offset="100%" stop-color="#C9941E"/>
    </linearGradient>
    
    <linearGradient id="goldGradient2" x1="0%" y1="100%" x2="100%" y2="0%">
      <stop offset="0%" stop-color="#C9941E"/>
      <stop offset="50%" stop-color="#D4A944"/>
      <stop offset="100%" stop-color="#E8B54D"/>
    </linearGradient>
  </defs>
</svg>
